<svg aria-hidden="true" style="position: absolute; width: 0; height: 0; overflow: hidden;" version="1.1" xmlns="http://www.w3.org/2000/svg" xmlns:xlink="http://www.w3.org/1999/xlink">
    <defs>
        <symbol id="icon-arrow-right" viewBox="0 0 18 18">
            <path stroke-linejoin="round" stroke-linecap="round" stroke-miterlimit="4" stroke-width="1.125" d="M3 9h12"></path>
            <path stroke-linejoin="round" stroke-linecap="round" stroke-miterlimit="4" stroke-width="1.125" d="M10.5 4.5l4.5 4.5-4.5 4.5"></path>
        </symbol>
        <symbol id="icon-arr-up" viewBox="0 0 18 18">
            <path stroke-linejoin="miter" stroke-linecap="butt" stroke-miterlimit="4" stroke-width="1.8" d="M13.5 11.25l-4.5-4.5-4.5 4.5"></path>
        </symbol>
        <symbol id="icon-arr-down" viewBox="0 0 18 18">
            <path stroke-linejoin="miter" stroke-linecap="butt" stroke-miterlimit="4" stroke-width="1.8" d="M13.5 6.75l-4.5 4.5-4.5-4.5"></path>
        </symbol>
        <symbol id="icon-urgent-execution" viewBox="0 0 18 18">
            <path stroke-linejoin="round" stroke-linecap="round" stroke-miterlimit="4" stroke-width="1.5" d="M13.622 1.5h-9.244c-0.347 0-0.628 0.281-0.628 0.628 0 1.999 0.794 3.916 2.208 5.329l0.914 0.914c0.091 0.091 0.136 0.136 0.169 0.18 0.198 0.266 0.198 0.631 0 0.897-0.033 0.044-0.078 0.089-0.169 0.18l-0.914 0.914c-1.413 1.413-2.208 3.331-2.208 5.329 0 0.347 0.281 0.628 0.628 0.628h9.244c0.347 0 0.628-0.281 0.628-0.628 0-1.999-0.794-3.916-2.208-5.329l-0.914-0.914c-0.091-0.091-0.136-0.136-0.169-0.18-0.198-0.266-0.198-0.631 0-0.897 0.032-0.044 0.078-0.089 0.169-0.18l0.914-0.914c1.413-1.413 2.208-3.331 2.208-5.329 0-0.347-0.281-0.628-0.628-0.628z"></path>
        </symbol>
        <symbol id="icon-art" viewBox="0 0 18 18">
            <path stroke-linejoin="round" stroke-linecap="round" stroke-miterlimit="4" stroke-width="1.5" d="M9.583 11.25l-2.833-2.833"></path>
            <path stroke-linejoin="round" stroke-linecap="round" stroke-miterlimit="4" stroke-width="1.5" d="M1.5 16.5c1.5 0 3.456 0.256 4.481-0.769s1.025-2.687 0-3.712c-1.025-1.025-2.687-1.025-3.712 0s0 2.981-0.769 4.481z"></path>
            <path stroke-linejoin="round" stroke-linecap="round" stroke-miterlimit="4" stroke-width="1.5" d="M6 12c-0.369-0.369-0.553-0.553-0.657-0.746-0.25-0.463-0.239-1.023 0.028-1.475 0.112-0.189 0.303-0.366 0.685-0.72l7.401-6.853c0.652-0.604 1.664-0.584 2.292 0.044s0.648 1.641 0.044 2.292l-6.853 7.401c-0.354 0.382-0.531 0.574-0.72 0.685-0.453 0.267-1.013 0.278-1.475 0.028-0.193-0.104-0.377-0.288-0.746-0.657z"></path>
        </symbol>
        <symbol id="icon-comunication" viewBox="0 0 18 18">
            <path stroke-linejoin="round" stroke-linecap="round" stroke-miterlimit="4" stroke-width="1.5" d="M4.571 8.422c-0.047-0.3-0.071-0.608-0.071-0.922 0-3.314 2.704-6 6.039-6s6.039 2.686 6.039 6c0 0.749-0.138 1.465-0.39 2.126-0.052 0.137-0.079 0.206-0.090 0.259s-0.016 0.090-0.018 0.145c-0.001 0.055 0.006 0.115 0.021 0.236l0.302 2.453c0.033 0.266 0.049 0.398 0.005 0.495-0.039 0.085-0.107 0.152-0.193 0.188-0.098 0.042-0.23 0.022-0.495-0.016l-2.389-0.35c-0.125-0.018-0.187-0.027-0.244-0.027s-0.095 0.004-0.15 0.016c-0.056 0.012-0.127 0.038-0.269 0.091-0.662 0.248-1.38 0.384-2.13 0.384-0.314 0-0.622-0.024-0.922-0.070M5.724 16.5c2.224 0 4.026-1.847 4.026-4.125s-1.803-4.125-4.026-4.125c-2.224 0-4.026 1.847-4.026 4.125 0 0.458 0.073 0.898 0.207 1.31 0.057 0.174 0.085 0.261 0.095 0.32 0.010 0.062 0.011 0.097 0.008 0.16-0.003 0.060-0.019 0.128-0.049 0.264l-0.459 2.071 2.246-0.307c0.123-0.017 0.184-0.025 0.237-0.025 0.056 0 0.086 0.003 0.142 0.014 0.052 0.010 0.131 0.038 0.287 0.093 0.411 0.145 0.853 0.224 1.312 0.224z"></path>
        </symbol>
        <symbol id="icon-expertise" viewBox="0 0 18 18">
            <path stroke-linejoin="round" stroke-linecap="round" stroke-miterlimit="4" stroke-width="1.5" d="M15 15.75c0-1.047 0-1.57-0.129-1.996-0.291-0.959-1.041-1.709-2-2-0.426-0.129-0.949-0.129-1.996-0.129h-3.75c-1.047 0-1.57 0-1.996 0.129-0.959 0.291-1.709 1.041-2 2-0.129 0.426-0.129 0.949-0.129 1.996"></path>
            <path stroke-linejoin="round" stroke-linecap="round" stroke-miterlimit="4" stroke-width="1.5" d="M9 9c1.864 0 3.375-1.511 3.375-3.375s-1.511-3.375-3.375-3.375c-1.864 0-3.375 1.511-3.375 3.375s1.511 3.375 3.375 3.375z"></path>
        </symbol>
    </defs>
</svg>